<?xml version="1.0" standalone="no"?>
<!DOCTYPE svg PUBLIC "-//W3C//DTD SVG 20010904//EN"
 "http://www.w3.org/TR/2001/REC-SVG-20010904/DTD/svg10.dtd">
<svg version="1.0" xmlns="http://www.w3.org/2000/svg"
 width="700.000000pt" height="700.000000pt" viewBox="0 0 700.000000 700.000000"
 preserveAspectRatio="xMidYMid meet">
<metadata>
Created by potrace 1.11, written by Peter Selinger 2001-2013
</metadata>
<g transform="translate(0.000000,700.000000) scale(0.100000,-0.100000)"
fill="#000000" stroke="none">
<path d="M3278 6995 c-2 -1 -41 -6 -88 -9 -47 -4 -96 -8 -110 -10 -14 -2 -46
-7 -71 -10 -25 -4 -57 -9 -70 -11 -13 -2 -41 -6 -62 -9 -225 -34 -596 -150
-836 -262 -51 -24 -95 -44 -97 -44 -14 0 -298 -166 -397 -232 -277 -185 -579
-463 -778 -714 -29 -38 -57 -73 -62 -79 -161 -200 -377 -593 -486 -886 -94
-254 -176 -590 -197 -814 -2 -22 -7 -76 -11 -120 -10 -100 -10 -496 0 -590 4
-38 10 -99 13 -135 5 -54 41 -263 57 -335 136 -591 404 -1114 801 -1562 110
-124 208 -221 316 -313 35 -30 71 -61 80 -69 77 -73 378 -276 540 -364 105
-58 314 -157 329 -157 4 0 25 -9 47 -19 80 -39 405 -140 528 -165 11 -3 46
-10 76 -16 88 -18 93 -19 130 -24 32 -4 82 -11 150 -22 167 -25 632 -25 840 1
623 77 1198 309 1695 683 400 300 779 751 994 1181 23 47 45 90 50 95 16 21
121 283 160 401 41 123 85 284 106 390 4 22 10 49 12 60 2 11 6 31 8 45 4 26
12 76 20 120 2 14 7 52 10 85 4 33 9 71 11 85 9 48 11 526 3 612 -15 162 -26
246 -54 393 -64 344 -228 783 -405 1080 -16 28 -32 57 -36 65 -32 67 -213 317
-323 445 -244 286 -531 532 -856 732 -195 120 -583 296 -745 339 -8 2 -62 17
-119 33 -118 34 -317 77 -451 97 -8 1 -46 5 -85 9 -38 4 -81 9 -95 12 -27 5
-536 13 -542 8z"/>
</g>
</svg>
